<svg xmlns="http://www.w3.org/2000/svg" width="95" height="35.402" viewBox="0 0 95 35.402">
  <defs>
    <style>
      .cls-1 {
        fill: #c5bfe5;
      }
    </style>
  </defs>
  <path id="LOGO" class="cls-1" d="M4151.583-4887.614c0-10.223,7.624-17.7,17.973-17.7s18.014,7.478,18.014,17.7-7.623,17.7-17.971,17.7S4151.583-4877.39,4151.583-4887.614Zm4.473,0c0,7.943,5.749,13.646,13.543,13.646,7.75,0,13.5-5.7,13.5-13.646,0-7.983-5.75-13.645-13.543-13.645S4156.056-4895.6,4156.056-4887.614Zm65.913,16.935v-33.826H4246.2v3.927H4226.44v10.558a7.223,7.223,0,0,1,5.088-1.812c3.663,0,6.3,3.066,9.455,3.066,2.043,0,3.364-1.108,4.727-2.769v4.3a6.354,6.354,0,0,1-5.153,2.385c-3.662,0-6.3-3.065-9.5-3.065a5.983,5.983,0,0,0-4.62,2.146v11.162h20.144v3.927Zm-8.206,0h-23.608v-33.825h4.472v29.814h16.524l-5.224-8.023c-.639.042-1.278.083-1.917.083h-8.3v-3.969h7.963c5.919,0,9.54-2.407,9.54-6.968s-3.62-6.968-9.54-6.968h-7.963v-3.97h8.3c8.6,0,13.671,4.266,13.671,10.938,0,4.771-2.6,8.319-7.282,9.965l8.643,12.922Z" transform="translate(-4151.583 4905.314)"/>
</svg>
